<svg xmlns="http://www.w3.org/2000/svg" width="512" height="512" viewBox="0 0 512 512"><title/><path d="M266.76.671c-3.288 0-6.704.159-10.217.447-89.975 7.088-66.091 102.329-67.433 134.065-1.659 23.243-6.384 41.602-22.383 64.305-18.834 22.351-45.273 58.523-57.787 96.2-5.938 17.719-8.751 35.856-6.129 53.001a9.33 9.33 0 0 0-2.338 2.825l-.023.048c-5.522 5.681-9.579 12.771-14.112 17.847-4.242 4.246-10.314 5.681-16.953 8.526-6.64 2.873-13.985 5.714-18.391 14.495-1.776 3.602-2.81 7.842-2.81 12.328l.002.466-.001-.022c0 4.247.606 8.558 1.178 11.399 1.211 8.527 2.458 15.546.798 20.656-5.267 14.463-5.938 24.394-2.234 31.608 3.703 7.12 11.4 9.962 20.017 12.771 17.24 4.278 40.642 2.873 59.067 12.771 19.698 9.962 39.719 14.272 55.683 9.994 11.376-2.545 20.638-9.966 25.635-19.897l.099-.216c12.482-.063 26.182-5.714 48.082-7.12 14.878-1.211 33.522 5.649 54.883 4.246.543 2.841 1.339 4.243 2.426 7.088l.064.064c8.303 16.602 23.69 24.106 40.102 22.83s33.875-11.399 48.019-27.81c13.442-16.282 35.824-23.05 50.639-31.991 7.408-4.246 13.377-9.962 13.825-18.135.479-8.527-4.246-17.272-15.198-29.31v-2.075l-.064-.064c-3.607-4.246-5.33-11.367-7.184-19.698-1.818-8.527-3.863-16.73-10.473-22.255h-.064c-1.278-1.147-2.649-1.435-3.99-2.873a7.928 7.928 0 0 0-4.033-1.37l-.019-.001c9.163-27.202 5.586-54.279-3.671-78.641-11.367-30.011-31.192-56.13-46.327-74.137-16.921-21.392-33.522-41.666-33.202-71.71.543-45.784 5.01-130.522-75.475-130.649zm11.271 72.474h.255c4.563 0 8.463 1.306 12.45 4.214 4.087 2.873 7.024 7.088 9.354 11.368 2.234 5.49 3.351 9.77 3.511 15.386 0-.415.127-.83.127-1.243v2.202a1.547 1.547 0 0 1-.064-.447l-.096-.511a37.703 37.703 0 0 1-3.288 15.279l.096-.24c-1.05 2.775-2.592 5.147-4.536 7.121l.002-.002c-.639-.32-1.211-.638-1.882-.891-2.234-.959-4.243-1.371-6.065-2.809a26.023 26.023 0 0 0-4.479-1.403l-.178-.034c1.05-1.243 3.096-2.809 3.863-4.21 1.075-2.519 1.755-5.442 1.882-8.507l.002-.048v-.383c.002-.153.006-.336.006-.519a25.53 25.53 0 0 0-1.334-8.186l.05.178c-.959-2.873-2.138-4.278-3.895-7.12-1.786-1.403-3.543-2.809-5.682-2.809h-.32c-1.978 0-3.735.638-5.553 2.809a17.351 17.351 0 0 0-4.37 6.995l-.034.121c-1.067 2.51-1.744 5.418-1.881 8.471l-.002.05v.383c.01 2.014.147 3.984.408 5.919l-.026-.234c-4.087-1.434-9.291-2.873-12.899-4.31a33.52 33.52 0 0 1-.382-4.194l-.001-.05v-.415a37.791 37.791 0 0 1 3.289-16.586l-.096.24c1.823-4.754 5.008-8.654 9.072-11.313l.088-.055c3.45-2.631 7.824-4.214 12.568-4.214h.01zm-63.057 1.246h.767a14.93 14.93 0 0 1 8.566 2.903l-.042-.026c3.055 2.704 5.522 6 7.234 9.715l.075.178c1.915 4.246 2.969 8.526 3.256 14.209v.064c.127 2.873.096 4.278-.064 5.681v1.691c-.638.159-1.179.383-1.755.543-3.256 1.147-5.841 2.841-8.367 4.246.131-.93.208-2.007.208-3.099 0-.912-.05-1.808-.154-2.691l.011.106v-.32c-.256-2.809-.831-4.243-1.755-7.088a13.142 13.142 0 0 0-3.505-5.68l-.006-.007a5.4 5.4 0 0 0-3.909-1.37l.015-.001h-.446c-1.53.127-2.777.859-3.99 2.808a11.362 11.362 0 0 0-2.546 5.683l-.008.058a20.424 20.424 0 0 0-.587 4.906c0 .746.04 1.483.114 2.209l-.009-.09v.32c.256 2.873.798 4.278 1.722 7.12a12.848 12.848 0 0 0 3.504 5.678l.007.007c.216.183.458.362.707.527l.026.016c-1.499 1.178-2.489 1.466-3.735 2.873-.798.575-1.722 1.275-2.809 1.434a57.268 57.268 0 0 1-5.726-8.272l-.147-.282c-1.919-4.169-3.113-9.026-3.287-14.144l-.001-.064a36.97 36.97 0 0 1-.107-2.817c0-4.072.657-7.987 1.874-11.65l-.075.262c1.263-4.386 3.346-8.191 6.099-11.408l-.034.042c2.714-2.841 5.522-4.278 8.878-4.278zm29.18 36.337c7.056 0 15.579 1.371 25.863 8.495 6.257 4.246 11.144 5.713 22.416 9.961h.064c5.426 2.873 8.622 5.649 10.185 8.495v-2.809c.784 1.56 1.242 3.403 1.242 5.351 0 1.674-.338 3.273-.953 4.721l.03-.08c-2.618 6.608-10.984 13.697-22.671 17.943v.064c-5.682 2.873-10.665 7.088-16.506 9.899-5.873 2.873-12.514 6.225-21.52 5.681a24.117 24.117 0 0 1-9.709-1.49l.168.054a75.124 75.124 0 0 1-7.111-4.375l.243.162c-4.15-2.873-7.728-7.088-13.026-9.899v-.096h-.064c-8.526-5.234-13.122-10.888-14.591-15.135-1.466-5.681-.096-9.962 4.119-12.77 4.755-2.873 8.079-5.745 10.281-7.152 2.202-1.563 3.032-2.138 3.735-2.778h.064v-.096c3.575-4.278 9.258-9.963 17.847-12.77 2.937-.766 6.225-1.371 9.899-1.403zm59.577 45.593c7.663 30.171 25.511 73.977 36.971 95.21 6.097 11.368 18.199 35.312 23.435 64.368 3.32-.096 7.024.383 10.92 1.37 13.729-35.568-11.623-73.785-23.178-84.418-4.69-4.274-4.947-7.12-2.618-7.12 12.546 11.367 29.055 33.459 35.024 58.683 2.745 11.367 3.384 23.498.447 35.536 1.435.606 2.873 1.274 4.374 1.435 21.968 11.367 30.075 19.986 26.182 32.722v-.926c-1.274-.064-2.553 0-3.831 0h-.288c3.192-9.93-3.895-17.56-22.702-26.054-19.474-8.527-35.024-7.152-37.675 9.898-.159.926-.255 1.435-.351 2.873-1.466.511-2.969 1.118-4.466 1.37-9.13 5.682-14.08 14.24-16.857 25.257-2.777 11.367-3.608 24.617-4.374 39.784v.064c-.479 7.088-3.639 17.815-6.8 28.736-31.928 22.831-76.21 32.758-113.856 7.12-2.478-4.31-5.314-8.031-8.563-11.344l.009.009a30.72 30.72 0 0 0-5.843-7.094l-.026-.025c3.863 0 7.216-.639 9.898-1.435 3.072-1.438 5.446-3.946 6.673-7.031l.031-.087c2.298-5.682 0-14.815-7.344-24.745s-19.794-21.168-38.059-32.375c-13.41-8.526-20.976-18.514-24.49-29.723-3.511-11.368-3.032-23.086-.319-34.992 5.202-22.798 18.578-44.922 27.138-58.811 2.266-1.403.767 2.873-8.686 20.72-8.463 15.995-24.297 53.161-2.618 82.057.889-22.313 5.875-43.233 14.225-62.351l-.432 1.111c12.006-27.202 37.102-74.584 39.081-112.135 1.022.767 4.595 2.873 6.161 4.31 4.626 2.841 8.079 7.088 12.547 9.898 4.466 4.278 10.154 7.12 18.643 7.12.831.064 1.595.127 2.362.127 8.75 0 15.515-2.841 21.2-5.681 6.192-2.841 11.111-7.12 15.771-8.526h.096c9.898-2.873 17.751-8.559 22.224-14.911zm46.524 190.705c.798 12.771 7.312 26.498 18.77 29.31 12.514 2.841 30.522-7.088 38.154-16.283l4.466-.192c6.704-.159 12.291.224 18.038 5.682l.064.064c4.406 4.243 6.481 11.303 8.303 18.642 1.818 8.526 3.256 16.601 8.719 22.671 10.346 11.24 13.729 19.315 13.537 24.266l.064-.127v.383l-.064-.255c-.32 5.586-3.959 8.463-10.601 12.675-13.409 8.526-37.166 15.134-52.33 33.426-13.154 15.707-29.183 24.266-43.327 25.384s-26.339-4.274-33.522-19.154l-.096-.064c-4.466-8.527-2.553-21.808 1.178-35.984 3.767-14.209 9.13-28.639 9.866-40.39.767-15.198 1.627-28.416 4.15-38.634 2.553-9.899 6.544-16.954 13.634-20.944l.959-.479zm-230.206 1.054h.25c1.171 0 2.323.091 3.447.272l-.123-.016c8.015 1.178 15.007 7.12 21.776 16.026l19.379 35.408.064.064c5.171 11.367 16.059 22.671 25.32 34.864 9.226 12.707 16.378 24.075 15.514 33.426v.127c-1.21 15.803-10.218 24.425-23.947 27.553-13.73 2.841-32.375.033-50.991-9.898-20.592-11.399-45.082-9.962-60.822-12.803-7.855-1.402-13.026-4.278-15.39-8.558-2.361-4.246-2.394-12.771 2.617-26.182v-.064l.064-.064c2.489-7.088.639-16.026-.575-23.818-1.178-8.527-1.786-15.07.894-20.017 3.416-7.088 8.463-8.495 14.687-11.335 6.257-2.873 13.633-4.31 19.474-9.994h.064v-.064c5.426-5.681 9.483-12.771 14.209-17.815 4.022-4.274 8.079-7.12 14.112-7.12zm152.393-193.167c-9.259 4.278-20.113 11.367-31.672 11.367s-20.656-5.649-27.234-9.898c-3.288-2.873-5.938-5.714-7.952-7.12-3.48-2.873-3.065-7.12-1.595-7.12 2.362.32 2.745 2.873 4.246 4.274 2.042 1.403 4.595 4.246 7.696 7.088 6.192 4.278 14.463 9.93 24.84 9.93 10.314 0 22.384-5.649 29.755-9.899 4.15-2.873 9.483-7.12 13.793-9.962 3.32-2.873 3.192-5.681 5.938-5.681 2.745.32.734 2.841-3.128 7.088-3.831 2.873-9.803 7.12-14.688 9.962zm-23.05-33.713v-.479c-.127-.415.287-.891.638-1.082 1.595-.891 3.831-.575 5.522.096 1.338 0 3.416 1.434 3.193 2.873-.127 1.022-1.786 1.403-2.873 1.403-1.147 0-1.946-.894-2.969-1.434-1.147-.382-3.129-.192-3.511-1.403zm-11.719 0c-.415 1.21-2.393 1.022-3.511 1.403-1.022.543-1.851 1.434-2.969 1.434-1.083 0-2.776-.384-2.905-1.434-.191-1.403 1.882-2.841 3.191-2.841 1.722-.638 3.927-.99 5.522-.096.383.192.767.638.638 1.086v.447z"/></svg>